<svg id="svg" version="1.1" width="400" height="377.02702702702703" viewBox="0 0 400 377.02702702702703" xmlns="http://www.w3.org/2000/svg" xmlns:xlink="http://www.w3.org/1999/xlink" ><g id="svgg"><path id="path0" d="M12.484 7.699 C 12.242 7.990,11.631 8.332,11.126 8.458 C 8.606 9.091,6.261 11.404,4.016 15.472 C 2.981 17.348,2.670 24.318,3.544 26.069 C 3.878 26.738,4.152 27.472,4.154 27.699 C 4.176 30.322,9.406 36.587,18.675 45.094 C 20.710 46.962,23.101 49.170,23.987 50.000 C 24.873 50.830,26.738 52.528,28.133 53.774 C 29.527 55.019,30.942 56.313,31.277 56.650 C 31.612 56.987,32.906 58.116,34.151 59.159 C 37.478 61.945,38.784 63.076,40.135 64.340 C 40.801 64.962,41.934 65.943,42.654 66.519 C 44.619 68.093,46.673 69.856,48.137 71.226 C 48.858 71.901,49.548 72.453,49.671 72.453 C 49.913 72.453,53.528 75.338,54.151 76.028 C 54.358 76.257,56.226 77.782,58.302 79.414 C 60.377 81.047,62.352 82.654,62.690 82.984 C 63.027 83.315,63.760 83.914,64.317 84.316 C 64.875 84.718,65.661 85.313,66.065 85.637 C 66.469 85.961,67.241 86.566,67.781 86.981 C 68.321 87.396,69.353 88.288,70.074 88.962 C 70.795 89.637,71.467 90.189,71.567 90.189 C 71.868 90.189,76.028 93.642,76.164 94.004 C 76.233 94.189,76.516 94.340,76.792 94.340 C 77.069 94.340,77.352 94.489,77.421 94.672 C 77.491 94.854,80.179 97.091,83.396 99.642 C 86.613 102.193,89.330 104.401,89.434 104.549 C 89.538 104.697,90.985 105.899,92.651 107.220 C 96.124 109.975,96.538 110.323,98.274 111.937 C 98.973 112.587,99.709 113.181,99.910 113.257 C 100.409 113.447,103.128 115.734,104.898 117.453 C 105.700 118.231,106.451 118.868,106.567 118.868 C 106.684 118.868,107.349 119.420,108.046 120.094 C 108.742 120.769,109.780 121.660,110.351 122.075 C 111.391 122.831,115.188 126.294,119.248 130.189 C 120.438 131.330,122.819 133.538,124.538 135.094 C 130.135 140.161,131.456 141.387,135.281 145.059 C 137.355 147.050,139.181 148.679,139.337 148.679 C 139.494 148.679,139.623 148.934,139.623 149.245 C 139.623 149.557,139.792 149.811,139.999 149.811 C 140.207 149.811,141.516 151.000,142.909 152.453 C 145.798 155.465,146.117 155.558,147.709 153.855 C 148.346 153.174,149.347 152.276,149.932 151.860 L 150.995 151.103 145.592 145.595 C 140.426 140.328,136.462 136.053,134.109 133.213 C 133.509 132.489,132.212 131.076,131.226 130.071 C 130.241 129.067,129.434 128.177,129.434 128.094 C 129.434 128.010,128.542 127.031,127.453 125.919 C 126.363 124.806,124.538 122.827,123.396 121.521 C 120.006 117.642,116.478 113.684,113.495 110.414 C 112.720 109.564,112.083 108.765,112.080 108.640 C 112.078 108.515,111.693 107.990,111.226 107.473 C 109.265 105.305,107.656 103.443,106.415 101.908 C 105.689 101.010,104.755 99.885,104.340 99.409 C 103.925 98.932,103.075 97.906,102.453 97.128 C 101.830 96.351,101.066 95.443,100.755 95.111 C 100.169 94.487,99.120 93.202,97.170 90.721 C 96.547 89.929,95.656 88.883,95.189 88.397 C 94.722 87.911,94.340 87.351,94.340 87.153 C 94.340 86.955,94.174 86.792,93.972 86.792 C 93.770 86.792,93.361 86.325,93.065 85.755 C 92.768 85.184,92.004 84.208,91.367 83.585 C 90.731 82.962,90.205 82.241,90.199 81.981 C 90.193 81.722,90.053 81.509,89.888 81.509 C 89.723 81.509,88.577 80.208,87.341 78.617 C 86.105 77.026,84.755 75.336,84.340 74.861 C 83.568 73.979,83.312 73.653,80.814 70.377 C 80.023 69.340,78.837 67.901,78.179 67.180 C 77.520 66.459,76.981 65.746,76.981 65.596 C 76.981 65.445,76.559 64.846,76.044 64.265 C 75.528 63.683,74.971 63.038,74.805 62.830 C 71.879 59.160,69.166 55.804,68.400 54.906 C 67.869 54.283,66.143 52.160,64.566 50.189 C 62.989 48.217,61.511 46.434,61.283 46.226 C 61.054 46.019,60.376 45.170,59.776 44.340 C 59.175 43.509,58.470 42.694,58.210 42.528 C 57.949 42.362,57.736 42.065,57.736 41.868 C 57.736 41.671,57.439 41.204,57.075 40.830 C 55.817 39.535,52.640 35.783,52.316 35.209 C 52.137 34.892,51.712 34.342,51.373 33.989 C 50.335 32.908,46.780 28.893,46.495 28.478 C 45.970 27.715,41.324 22.423,39.550 20.566 C 38.558 19.528,36.425 17.278,34.810 15.566 C 33.195 13.854,31.659 12.453,31.396 12.453 C 31.134 12.453,30.822 12.198,30.703 11.887 C 30.583 11.575,30.291 11.317,30.054 11.312 C 29.817 11.308,29.198 10.972,28.679 10.566 C 28.160 10.160,27.459 9.824,27.122 9.820 C 26.784 9.815,26.307 9.570,26.062 9.275 C 25.817 8.980,24.957 8.627,24.151 8.491 C 23.345 8.354,22.485 8.001,22.240 7.706 C 21.603 6.939,13.119 6.933,12.484 7.699 M182.505 170.378 C 181.287 173.553,181.307 173.583,192.521 184.804 L 202.075 194.365 202.188 192.749 C 202.343 190.508,205.201 189.307,205.919 191.179 C 206.029 191.465,206.271 191.698,206.458 191.698 C 206.900 191.698,211.321 196.187,211.321 196.637 C 211.321 196.826,211.448 196.984,211.604 196.989 C 211.759 196.993,212.766 197.827,213.840 198.844 C 216.115 200.996,216.226 200.900,216.226 196.785 L 216.226 194.009 208.962 186.705 C 204.967 182.687,200.524 178.389,199.088 177.153 C 197.652 175.917,195.784 174.270,194.937 173.493 C 194.090 172.716,193.099 171.982,192.736 171.864 C 192.373 171.745,192.075 171.489,192.075 171.295 C 192.075 171.102,191.014 170.936,189.717 170.927 C 187.529 170.912,185.487 170.605,183.543 169.999 C 182.987 169.826,182.673 169.941,182.505 170.378 M164.031 181.001 C 163.569 181.462,163.759 182.954,164.528 184.906 C 164.943 185.959,165.283 187.584,165.283 188.518 C 165.283 189.451,165.524 190.591,165.818 191.051 C 166.112 191.511,166.470 193.021,166.614 194.407 C 166.898 197.149,168.374 199.112,176.173 207.115 C 177.655 208.636,178.868 210.035,178.868 210.223 C 178.868 210.412,179.123 210.566,179.434 210.566 C 179.745 210.566,180.000 210.710,180.000 210.886 C 180.000 211.321,185.564 216.756,188.885 219.564 C 190.671 221.074,196.142 226.036,198.214 228.025 C 200.202 229.933,200.763 230.189,202.963 230.189 C 205.856 230.189,205.593 229.696,199.533 223.783 C 185.130 209.730,185.283 209.898,185.283 208.149 C 185.283 206.988,185.642 206.762,187.953 206.464 L 189.791 206.226 177.040 193.485 C 170.026 186.477,164.172 180.859,164.031 181.001 M198.869 213.868 C 198.869 214.231,199.901 215.461,201.163 216.602 C 202.424 217.742,205.090 220.247,207.087 222.168 C 209.084 224.089,210.854 225.660,211.020 225.660 C 211.185 225.660,211.321 225.915,211.321 226.226 C 211.321 226.538,211.533 226.798,211.792 226.805 C 212.052 226.812,213.026 227.576,213.957 228.503 C 215.740 230.278,216.975 230.603,219.005 229.831 C 219.909 229.487,219.625 229.150,211.841 221.340 L 203.736 213.208 201.302 213.208 C 199.235 213.208,198.868 213.307,198.869 213.868 M215.094 213.727 C 215.094 214.013,216.472 215.583,218.157 217.217 C 219.841 218.852,221.667 220.680,222.213 221.280 C 222.760 221.880,223.955 223.068,224.868 223.921 C 228.048 226.891,230.113 229.019,230.269 229.486 C 230.429 229.968,234.102 230.174,234.550 229.727 C 234.676 229.601,233.873 228.567,232.767 227.429 C 230.453 225.051,224.947 219.088,222.790 216.624 C 219.900 213.324,219.713 213.208,217.303 213.208 C 215.680 213.208,215.094 213.345,215.094 213.727 M229.057 213.790 C 229.057 214.439,230.173 215.664,238.208 223.833 C 241.269 226.945,243.774 229.667,243.774 229.882 C 243.774 230.214,246.339 230.003,246.709 229.641 C 246.813 229.539,245.601 228.048,243.819 226.084 C 243.325 225.540,241.967 223.913,240.800 222.469 C 239.634 221.024,238.170 219.287,237.547 218.608 C 236.925 217.929,236.075 216.916,235.660 216.358 C 233.465 213.408,229.057 211.693,229.057 213.790 " stroke="none" fill="#000000" fill-rule="evenodd"></path><path id="path1" d="M10.595 7.566 C 8.046 8.807,4.412 12.142,3.947 13.666 C 3.803 14.140,3.464 14.783,3.194 15.094 C 1.335 17.239,2.325 28.909,4.538 30.943 C 4.651 31.047,5.407 32.151,6.219 33.396 C 7.030 34.642,9.073 37.019,10.759 38.679 C 16.247 44.086,21.272 48.845,23.719 50.953 C 25.038 52.089,26.821 53.672,27.681 54.470 C 28.541 55.268,30.009 56.629,30.943 57.495 C 31.877 58.361,33.653 59.916,34.888 60.950 C 36.124 61.984,37.410 63.085,37.745 63.396 C 39.768 65.277,43.947 68.848,46.750 71.092 C 48.538 72.523,50.085 73.806,50.189 73.942 C 50.292 74.079,51.057 74.691,51.887 75.303 C 52.717 75.915,53.566 76.605,53.774 76.837 C 53.981 77.069,55.849 78.588,57.925 80.213 C 60.000 81.838,61.783 83.274,61.887 83.403 C 61.991 83.533,64.113 85.252,66.604 87.224 C 69.094 89.196,71.722 91.349,72.443 92.009 C 73.163 92.668,73.885 93.208,74.046 93.208 C 74.208 93.208,74.673 93.541,75.080 93.948 C 75.488 94.355,77.568 96.077,79.703 97.774 C 81.838 99.471,83.670 100.972,83.774 101.110 C 83.877 101.248,85.660 102.690,87.736 104.315 C 89.811 105.940,91.679 107.470,91.887 107.714 C 92.094 107.959,93.565 109.189,95.154 110.448 C 98.285 112.927,98.942 113.465,99.924 114.357 C 100.277 114.678,101.495 115.697,102.631 116.621 C 103.766 117.546,104.964 118.557,105.291 118.868 C 105.619 119.179,106.884 120.283,108.102 121.321 C 112.931 125.434,114.281 126.638,117.570 129.767 C 122.150 134.124,125.886 137.610,130.355 141.698 C 132.397 143.566,134.706 145.689,135.485 146.415 C 136.265 147.142,137.642 148.424,138.546 149.264 C 139.449 150.104,141.345 152.028,142.758 153.539 L 145.327 156.287 144.349 157.569 C 139.784 163.554,135.300 172.302,133.916 177.925 C 133.712 178.755,133.299 180.162,132.999 181.051 C 132.698 181.940,132.453 183.331,132.453 184.141 C 132.453 184.951,132.185 186.769,131.857 188.181 C 130.418 194.386,132.673 211.961,135.025 212.870 C 135.505 213.056,139.277 213.208,143.408 213.208 C 152.205 213.208,152.370 213.136,150.959 209.948 C 150.535 208.990,150.186 207.930,150.184 207.594 C 150.181 207.257,149.815 205.877,149.371 204.528 C 148.435 201.687,148.163 189.465,148.973 186.604 C 149.208 185.774,149.644 184.133,149.941 182.959 C 150.858 179.341,154.582 172.052,155.374 172.328 C 157.269 172.990,162.264 178.794,162.264 180.336 C 162.264 180.898,162.425 181.520,162.621 181.717 C 162.968 182.067,163.826 185.453,164.527 189.245 C 164.719 190.283,165.134 192.236,165.449 193.585 C 165.764 194.934,166.106 196.462,166.210 196.981 C 166.524 198.549,184.507 217.258,190.358 222.103 C 191.592 223.126,193.136 224.472,193.788 225.094 C 194.441 225.717,195.763 226.906,196.727 227.736 C 197.692 228.566,198.483 229.373,198.485 229.528 C 198.488 229.684,180.257 229.811,157.972 229.811 C 112.550 229.811,115.094 229.695,115.094 231.769 C 115.094 234.767,117.180 247.220,118.306 250.943 C 118.588 251.877,118.925 253.236,119.054 253.962 C 119.183 254.689,119.434 255.623,119.610 256.038 C 119.992 256.936,121.018 260.037,121.546 261.887 C 121.753 262.613,122.077 263.547,122.265 263.962 C 122.454 264.377,123.048 265.821,123.587 267.170 C 125.020 270.757,125.961 272.729,128.989 278.491 C 133.054 286.223,138.944 295.137,142.583 299.066 C 143.549 300.109,144.619 301.382,144.961 301.896 C 145.546 302.775,146.926 304.304,150.744 308.302 C 154.499 312.234,160.018 317.042,165.472 321.132 C 167.547 322.689,169.302 324.090,169.371 324.245 C 169.440 324.401,169.717 324.528,169.985 324.528 C 170.254 324.528,170.684 324.782,170.941 325.092 C 171.199 325.402,172.342 326.209,173.482 326.884 C 174.622 327.560,176.003 328.387,176.551 328.721 C 177.099 329.055,178.142 329.686,178.868 330.123 C 180.065 330.843,189.306 335.467,191.132 336.260 C 191.547 336.440,193.075 337.062,194.528 337.642 C 199.133 339.480,198.647 338.184,198.906 349.312 C 199.194 361.677,199.993 363.829,204.892 365.431 C 207.704 366.351,292.283 366.355,295.094 365.436 C 300.126 363.790,301.132 361.011,301.132 348.764 C 301.132 339.624,301.353 338.491,303.137 338.491 C 303.636 338.491,307.400 336.847,312.323 334.478 C 314.639 333.364,316.629 332.453,316.746 332.453 C 316.862 332.453,318.395 331.604,320.152 330.566 C 321.909 329.528,323.445 328.679,323.564 328.679 C 323.684 328.679,324.671 328.053,325.759 327.288 C 326.846 326.522,328.755 325.206,330.000 324.363 C 331.245 323.520,332.434 322.642,332.642 322.411 C 332.849 322.180,333.783 321.470,334.717 320.832 C 335.651 320.194,336.862 319.279,337.409 318.798 C 337.955 318.318,339.823 316.738,341.559 315.288 C 345.106 312.327,350.015 307.569,352.499 304.687 C 353.408 303.632,354.955 301.834,355.938 300.691 C 356.922 299.547,358.110 298.184,358.580 297.661 C 359.050 297.139,359.689 296.324,360.000 295.850 C 360.311 295.377,360.914 294.546,361.339 294.004 C 363.875 290.771,368.112 283.925,371.140 278.168 C 371.974 276.581,373.014 274.604,373.450 273.774 C 373.886 272.943,374.623 271.330,375.089 270.189 C 375.554 269.047,376.108 267.783,376.319 267.379 C 376.669 266.709,378.870 260.756,379.604 258.491 C 379.895 257.594,380.450 255.656,381.684 251.226 C 382.770 247.329,383.685 242.154,384.871 233.208 C 385.068 231.723,385.057 230.606,384.843 230.377 C 384.611 230.129,361.157 229.966,316.332 229.902 L 248.173 229.803 247.117 228.581 C 246.536 227.909,245.928 227.189,245.764 226.981 C 245.071 226.099,241.651 222.060,241.132 221.509 C 240.386 220.717,237.725 217.546,236.250 215.690 C 234.409 213.373,234.275 213.406,245.975 213.296 L 256.604 213.196 256.603 212.353 C 256.602 211.545,254.970 210.167,246.709 203.994 C 240.547 199.390,239.939 192.570,245.356 188.818 C 247.389 187.410,252.305 187.230,254.175 188.496 C 254.784 188.908,255.471 189.330,255.700 189.434 C 255.929 189.538,256.693 190.101,257.398 190.685 C 258.103 191.270,261.736 194.018,265.472 196.792 C 269.208 199.567,272.434 201.977,272.642 202.148 C 275.530 204.527,275.395 204.913,275.569 193.774 C 275.706 185.000,275.739 184.670,276.619 183.208 C 280.076 177.466,287.809 177.564,291.442 183.396 C 292.218 184.643,292.272 185.239,292.396 194.019 L 292.528 203.322 293.593 203.017 C 294.178 202.849,296.190 201.549,298.062 200.129 C 301.500 197.522,308.833 192.041,312.212 189.554 C 320.715 183.294,331.489 193.985,324.102 201.352 C 321.726 203.722,321.392 204.016,319.999 204.956 C 315.616 207.915,311.052 211.843,311.225 212.507 C 311.434 213.304,363.787 213.631,365.257 212.844 C 366.622 212.114,368.410 204.857,368.840 198.302 C 369.229 192.358,367.771 183.019,365.657 177.925 C 364.665 175.533,363.318 172.565,363.004 172.075 C 362.803 171.764,362.467 171.109,362.257 170.619 C 360.769 167.158,353.487 158.941,348.477 155.070 C 345.023 152.401,344.555 152.137,336.415 148.262 C 335.043 147.608,331.564 146.720,327.625 146.017 C 325.489 145.636,323.367 145.207,322.908 145.065 C 322.209 144.848,318.080 141.383,314.801 138.259 C 314.007 137.503,309.102 134.543,305.489 132.639 C 304.086 131.900,300.051 130.571,295.849 129.465 C 289.653 127.835,275.071 127.729,272.000 129.293 C 271.439 129.578,270.675 129.812,270.302 129.814 C 269.928 129.815,269.167 130.054,268.610 130.344 C 268.054 130.635,267.106 130.980,266.506 131.112 C 264.977 131.448,261.158 133.031,260.649 133.539 C 260.417 133.772,260.044 133.962,259.822 133.962 C 259.599 133.962,258.543 134.538,257.474 135.242 C 256.406 135.945,255.361 136.582,255.152 136.657 C 254.602 136.853,250.736 140.213,248.159 142.735 C 246.938 143.929,245.819 144.906,245.672 144.906 C 244.818 144.906,237.790 146.500,237.103 146.850 C 236.652 147.079,235.633 147.288,234.839 147.313 L 233.396 147.358 233.174 132.453 C 232.933 116.370,232.936 116.396,231.128 114.148 C 228.740 111.180,224.886 110.300,218.679 111.304 C 217.642 111.472,215.434 111.807,213.774 112.048 C 210.771 112.486,206.930 113.545,204.660 114.562 C 204.006 114.855,203.290 115.094,203.069 115.094 C 201.404 115.094,193.648 119.305,189.434 122.496 C 183.186 127.227,177.508 133.383,174.332 138.868 C 173.431 140.425,172.504 141.953,172.272 142.264 C 172.040 142.575,171.456 143.764,170.974 144.906 C 170.493 146.047,169.864 147.432,169.578 147.983 C 169.291 148.534,169.056 149.213,169.054 149.492 C 169.053 149.771,168.815 150.454,168.526 151.009 C 168.236 151.563,167.806 152.919,167.570 154.022 C 166.627 158.419,166.250 158.482,162.499 154.870 C 159.038 151.537,157.102 150.566,153.919 150.566 L 151.673 150.566 147.818 146.689 C 143.889 142.738,142.505 141.258,137.170 135.298 C 135.509 133.444,133.472 131.207,132.642 130.328 C 131.811 129.448,129.943 127.408,128.491 125.795 C 126.018 123.049,124.138 120.969,119.463 115.810 C 117.587 113.739,117.184 113.273,113.629 109.074 C 112.671 107.942,111.632 106.733,111.321 106.387 C 109.650 104.532,108.614 103.303,106.415 100.566 C 105.081 98.906,103.884 97.462,103.755 97.358 C 103.522 97.172,99.621 92.398,94.528 86.070 C 93.075 84.265,91.416 82.288,90.840 81.677 C 90.264 81.066,89.330 79.887,88.765 79.057 C 88.200 78.226,87.630 77.462,87.499 77.358 C 87.367 77.255,85.521 74.962,83.396 72.264 C 81.271 69.566,79.425 67.274,79.294 67.170 C 79.162 67.066,78.591 66.302,78.025 65.472 C 77.459 64.642,76.441 63.336,75.762 62.571 C 75.083 61.805,74.199 60.733,73.797 60.188 C 72.966 59.062,71.958 57.812,71.213 56.981 C 70.934 56.670,69.360 54.717,67.716 52.642 C 66.073 50.566,64.538 48.698,64.307 48.491 C 64.075 48.283,62.613 46.500,61.058 44.528 C 59.503 42.557,57.794 40.434,57.260 39.811 C 56.725 39.189,55.154 37.321,53.768 35.660 C 52.382 34.000,50.798 32.135,50.247 31.516 C 49.696 30.898,48.455 29.411,47.489 28.212 C 43.005 22.647,31.285 10.566,30.370 10.566 C 30.063 10.566,29.811 10.433,29.811 10.270 C 29.811 10.107,28.750 9.497,27.453 8.914 C 26.156 8.331,24.500 7.582,23.774 7.249 C 21.033 5.994,13.449 6.177,10.595 7.566 M22.240 7.706 C 22.485 8.001,23.345 8.354,24.151 8.491 C 24.957 8.627,25.817 8.980,26.062 9.275 C 26.307 9.570,26.784 9.815,27.122 9.820 C 27.459 9.824,28.160 10.160,28.679 10.566 C 29.198 10.972,29.817 11.308,30.054 11.312 C 30.291 11.317,30.583 11.575,30.703 11.887 C 30.822 12.198,31.134 12.453,31.396 12.453 C 31.659 12.453,33.195 13.854,34.810 15.566 C 36.425 17.278,38.558 19.528,39.550 20.566 C 41.324 22.423,45.970 27.715,46.495 28.478 C 46.780 28.893,50.335 32.908,51.373 33.989 C 51.712 34.342,52.137 34.892,52.316 35.209 C 52.640 35.783,55.817 39.535,57.075 40.830 C 57.439 41.204,57.736 41.671,57.736 41.868 C 57.736 42.065,57.949 42.362,58.210 42.528 C 58.470 42.694,59.175 43.509,59.776 44.340 C 60.376 45.170,61.054 46.019,61.283 46.226 C 61.511 46.434,62.989 48.217,64.566 50.189 C 66.143 52.160,67.869 54.283,68.400 54.906 C 69.166 55.804,71.879 59.160,74.805 62.830 C 74.971 63.038,75.528 63.683,76.044 64.265 C 76.559 64.846,76.981 65.445,76.981 65.596 C 76.981 65.746,77.520 66.459,78.179 67.180 C 78.837 67.901,80.023 69.340,80.814 70.377 C 83.312 73.653,83.568 73.979,84.340 74.861 C 84.755 75.336,86.105 77.026,87.341 78.617 C 88.577 80.208,89.723 81.509,89.888 81.509 C 90.053 81.509,90.193 81.722,90.199 81.981 C 90.205 82.241,90.731 82.962,91.367 83.585 C 92.004 84.208,92.768 85.184,93.065 85.755 C 93.361 86.325,93.770 86.792,93.972 86.792 C 94.174 86.792,94.340 86.955,94.340 87.153 C 94.340 87.351,94.722 87.911,95.189 88.397 C 95.656 88.883,96.547 89.929,97.170 90.721 C 99.120 93.202,100.169 94.487,100.755 95.111 C 101.066 95.443,101.830 96.351,102.453 97.128 C 103.075 97.906,103.925 98.932,104.340 99.409 C 104.755 99.885,105.689 101.010,106.415 101.908 C 107.656 103.443,109.265 105.305,111.226 107.473 C 111.693 107.990,112.078 108.515,112.080 108.640 C 112.083 108.765,112.720 109.564,113.495 110.414 C 116.478 113.684,120.006 117.642,123.396 121.521 C 124.538 122.827,126.363 124.806,127.453 125.919 C 128.542 127.031,129.434 128.010,129.434 128.094 C 129.434 128.177,130.241 129.067,131.226 130.071 C 132.212 131.076,133.509 132.489,134.109 133.213 C 136.462 136.053,140.426 140.328,145.592 145.595 L 150.995 151.103 149.932 151.860 C 149.347 152.276,148.346 153.174,147.709 153.855 C 146.117 155.558,145.798 155.465,142.909 152.453 C 141.516 151.000,140.207 149.811,139.999 149.811 C 139.792 149.811,139.623 149.557,139.623 149.245 C 139.623 148.934,139.494 148.679,139.337 148.679 C 139.181 148.679,137.355 147.050,135.281 145.059 C 131.456 141.387,130.135 140.161,124.538 135.094 C 122.819 133.538,120.438 131.330,119.248 130.189 C 115.188 126.294,111.391 122.831,110.351 122.075 C 109.780 121.660,108.742 120.769,108.046 120.094 C 107.349 119.420,106.684 118.868,106.567 118.868 C 106.451 118.868,105.700 118.231,104.898 117.453 C 103.128 115.734,100.409 113.447,99.910 113.257 C 99.709 113.181,98.973 112.587,98.274 111.937 C 96.538 110.323,96.124 109.975,92.651 107.220 C 90.985 105.899,89.538 104.697,89.434 104.549 C 89.330 104.401,86.613 102.193,83.396 99.642 C 80.179 97.091,77.491 94.854,77.421 94.672 C 77.352 94.489,77.069 94.340,76.792 94.340 C 76.516 94.340,76.233 94.189,76.164 94.004 C 76.028 93.642,71.868 90.189,71.567 90.189 C 71.467 90.189,70.795 89.637,70.074 88.962 C 69.353 88.288,68.321 87.396,67.781 86.981 C 67.241 86.566,66.469 85.961,66.065 85.637 C 65.661 85.313,64.875 84.718,64.317 84.316 C 63.760 83.914,63.027 83.315,62.690 82.984 C 62.352 82.654,60.377 81.047,58.302 79.414 C 56.226 77.782,54.358 76.257,54.151 76.028 C 53.528 75.338,49.913 72.453,49.671 72.453 C 49.548 72.453,48.858 71.901,48.137 71.226 C 46.673 69.856,44.619 68.093,42.654 66.519 C 41.934 65.943,40.801 64.962,40.135 64.340 C 38.784 63.076,37.478 61.945,34.151 59.159 C 32.906 58.116,31.612 56.987,31.277 56.650 C 30.942 56.313,29.527 55.019,28.133 53.774 C 26.738 52.528,24.873 50.830,23.987 50.000 C 23.101 49.170,20.710 46.962,18.675 45.094 C 9.406 36.587,4.176 30.322,4.154 27.699 C 4.152 27.472,3.878 26.738,3.544 26.069 C 2.670 24.318,2.981 17.348,4.016 15.472 C 6.261 11.404,8.606 9.091,11.126 8.458 C 11.631 8.332,12.242 7.990,12.484 7.699 C 13.119 6.933,21.603 6.939,22.240 7.706 M215.997 129.654 C 216.351 130.576,216.268 191.628,215.913 191.848 C 215.740 191.954,214.058 190.478,212.175 188.568 C 206.676 182.987,201.117 177.671,198.679 175.659 C 197.434 174.631,196.330 173.690,196.226 173.568 C 195.006 172.126,191.825 170.189,190.680 170.189 C 189.951 170.189,188.140 169.919,186.658 169.589 C 185.175 169.259,183.558 168.910,183.063 168.814 C 181.374 168.486,183.881 155.359,186.076 153.038 C 186.263 152.841,186.415 152.446,186.415 152.160 C 186.415 151.669,189.296 146.440,189.789 146.038 C 189.916 145.934,190.594 145.085,191.297 144.151 C 192.993 141.897,197.573 137.450,199.654 136.039 C 200.571 135.417,201.406 134.804,201.509 134.677 C 201.841 134.271,207.499 131.321,207.946 131.321 C 208.183 131.321,208.946 131.050,209.642 130.720 C 212.664 129.286,215.663 128.783,215.997 129.654 M185.849 170.579 C 186.679 170.761,188.420 170.918,189.717 170.927 C 191.014 170.936,192.075 171.102,192.075 171.295 C 192.075 171.489,192.373 171.745,192.736 171.864 C 193.099 171.982,194.090 172.716,194.937 173.493 C 195.784 174.270,197.652 175.917,199.088 177.153 C 200.524 178.389,204.967 182.687,208.962 186.705 L 216.226 194.009 216.226 196.785 C 216.226 200.900,216.115 200.996,213.840 198.844 C 212.766 197.827,211.759 196.993,211.604 196.989 C 211.448 196.984,211.321 196.826,211.321 196.637 C 211.321 196.187,206.900 191.698,206.458 191.698 C 206.271 191.698,206.029 191.465,205.919 191.179 C 205.201 189.307,202.343 190.508,202.188 192.749 L 202.075 194.365 192.521 184.804 C 181.682 173.958,182.278 174.668,182.270 172.578 C 182.262 170.338,182.578 169.698,183.543 169.999 C 183.981 170.135,185.019 170.396,185.849 170.579 M187.953 206.464 C 185.642 206.762,185.283 206.988,185.283 208.149 C 185.283 209.898,185.130 209.730,199.533 223.783 C 205.593 229.696,205.856 230.189,202.963 230.189 C 200.763 230.189,200.202 229.933,198.214 228.025 C 196.142 226.036,190.671 221.074,188.885 219.564 C 185.564 216.756,180.000 211.321,180.000 210.886 C 180.000 210.710,179.745 210.566,179.434 210.566 C 179.123 210.566,178.868 210.412,178.868 210.223 C 178.868 210.035,177.655 208.636,176.173 207.115 C 168.374 199.112,166.898 197.149,166.614 194.407 C 166.470 193.021,166.112 191.511,165.818 191.051 C 165.524 190.591,165.283 189.451,165.283 188.518 C 165.283 187.584,164.943 185.959,164.528 184.906 C 163.759 182.954,163.569 181.462,164.031 181.001 C 164.172 180.859,170.026 186.477,177.040 193.485 L 189.791 206.226 187.953 206.464 M205.472 191.901 C 205.887 192.207,208.476 194.706,211.226 197.455 L 216.225 202.453 216.220 204.340 C 216.212 207.412,215.875 207.468,213.318 204.820 C 207.153 198.436,204.351 195.409,203.718 194.449 C 202.179 192.115,203.385 190.363,205.472 191.901 M190.199 207.802 C 190.712 208.150,192.321 209.582,193.774 210.984 C 195.226 212.387,196.853 213.928,197.389 214.409 C 199.099 215.944,205.510 221.833,207.069 223.300 C 207.896 224.079,209.695 225.756,211.066 227.026 C 214.007 229.749,213.983 229.814,210.031 229.802 L 206.981 229.792 201.887 224.870 C 188.901 212.323,186.756 210.102,186.531 208.974 C 186.170 207.172,188.277 206.499,190.199 207.802 M211.841 221.340 C 219.625 229.150,219.909 229.487,219.005 229.831 C 216.975 230.603,215.740 230.278,213.957 228.503 C 213.026 227.576,212.052 226.812,211.792 226.805 C 211.533 226.798,211.321 226.538,211.321 226.226 C 211.321 225.915,211.185 225.660,211.020 225.660 C 210.854 225.660,209.084 224.089,207.087 222.168 C 205.090 220.247,202.424 217.742,201.163 216.602 C 198.092 213.825,198.118 213.208,201.302 213.208 L 203.736 213.208 211.841 221.340 M212.581 213.562 C 213.094 213.757,215.123 215.497,217.090 217.430 C 219.057 219.362,222.555 222.797,224.862 225.062 C 229.947 230.055,229.930 229.811,225.191 229.811 L 221.325 229.811 213.681 222.032 C 209.477 217.753,206.038 214.017,206.038 213.730 C 206.038 213.108,211.049 212.979,212.581 213.562 M220.417 214.077 C 220.914 214.555,221.982 215.701,222.790 216.624 C 224.947 219.088,230.453 225.051,232.767 227.429 C 233.873 228.567,234.676 229.601,234.550 229.727 C 234.102 230.174,230.429 229.968,230.269 229.486 C 230.113 229.019,228.048 226.891,224.868 223.921 C 223.955 223.068,222.760 221.880,222.213 221.280 C 221.667 220.680,219.841 218.852,218.157 217.217 C 214.425 213.597,214.342 213.208,217.303 213.208 C 219.096 213.208,219.683 213.371,220.417 214.077 M226.838 213.679 C 227.273 213.939,228.619 215.174,229.831 216.425 C 240.317 227.253,242.185 229.257,242.025 229.516 C 241.791 229.894,235.473 229.906,235.467 229.528 C 235.464 229.373,234.607 228.311,233.562 227.170 C 232.517 226.028,230.524 223.827,229.133 222.277 C 227.742 220.727,225.546 218.350,224.254 216.994 C 221.232 213.824,221.185 213.208,223.967 213.208 C 225.112 213.208,226.404 213.420,226.838 213.679 M233.828 214.276 C 234.421 214.863,235.245 215.801,235.660 216.358 C 236.075 216.916,236.925 217.929,237.547 218.608 C 238.170 219.287,239.634 221.024,240.800 222.469 C 241.967 223.913,243.325 225.540,243.819 226.084 C 245.601 228.048,246.813 229.539,246.709 229.641 C 246.339 230.003,243.774 230.214,243.774 229.882 C 243.774 229.667,241.269 226.945,238.208 223.833 C 227.680 213.130,227.734 213.208,230.903 213.208 C 232.426 213.208,232.940 213.395,233.828 214.276 " stroke="none" fill="#157249" fill-rule="evenodd"></path></g></svg>